{"title":"Love And A Bullet DVDRip 2002 Xvid-LilReaper22395","uid":6297406,"size":854748110,"categoryP":"video","categoryS":"movies","magnet":"?xt=urn:btih:b893216556da4961e6a4f25e9af94a7b5e91448e&amp;dn=Love+And+A+Bullet+DVDRip+2002+Xvid-LilReaper22395&amp;tr=udp%3A%2F%2Ftracker.openbittorrent.com%3A80&amp;tr=udp%3A%2F%2Fopen.demonii.com%3A1337&amp;tr=udp%3A%2F%2Ftracker.coppersurfer.tk%3A6969&amp;tr=udp%3A%2F%2Fexodus.desync.com%3A6969","seeders":2,"leechers":0,"uploader":"lilreaper22395","files":-1,"time":1302046955,"description":"Storyline\nWhile staking out his next assignment--the innocent girlfriend of his notorious boss--contract killer Malik reflects on the dark path he's chosen but cannot escape. Torn between his sense of duty and his newfound sense of humanity, he finds that the only way out is a perilous showdown with men who are every bit as cold-blooded as he is. Written by Sujit R. Varma  \n\nDirectors: Kantz, Ben Ramsey\nWriters: Ben Ramsey, Kantz\nStars: Kent King, Anthony 'Treach' Criss and Charles Guardino\n\nCountry: USA\nLanguage: English\nFilming Locations: Los Angeles, California, USA\nRuntime: 85 min\n\n\nFormat                           : AVI\nFormat/Info                      : Audio Video Interleave\nFile size                        : 815 MiB\nDuration                         : 1h 25mn\nOverall bit rate                 : 1 329 Kbps\n\nVideo\nID                               : 0\nFormat                           : MPEG-4 Visual\nFormat profile                   : Advanced Simple@L4\nFormat settings, BVOP            : No\nFormat settings, QPel            : No\nFormat settings, GMC             : No warppoints\nFormat settings, Matrix          : Default (H.263)\nCodec ID                         : XVID\nCodec ID/Hint                    : XviD\nDuration                         : 1h 25mn\nBit rate                         : 1 187 Kbps\nWidth                            : 640 pixels\nHeight                           : 360 pixels\nDisplay aspect ratio             : 16:9\nFrame rate                       : 29.970 fps\nColor space                      : YUV\nChroma subsampling               : 4:2:0\nBit depth                        : 8 bits\nScan type                        : Progressive\nCompression mode                 : Lossy\nBits/(Pixel*Frame)               : 0.172\nStream size                      : 728 MiB (89%)\nWriting library                  : Magic0432\n\nAudio\nID                               : 1\nFormat                           : MPEG Audio\nFormat version                   : Version 1\nFormat profile                   : Layer 3\nMode                             : Joint stereo\nMode extension                   : MS Stereo\nCodec ID                         : 55\nCodec ID/Hint                    : MP3\nDuration                         : 1h 25mn\nBit rate mode                    : Constant\nBit rate                         : 128 Kbps\nChannel(s)                       : 2 channels\nSampling rate                    : 44.1 KHz\nCompression mode                 : Lossy\nStream size                      : 78.5 MiB (10%)\nAlignment                        : Aligned on interleaves\nInterleave, duration             : 26 ms (0.78 video frame)\nWriting library                  : LAME3.97\n","torrent":{"xt":"urn:btih:b893216556da4961e6a4f25e9af94a7b5e91448e","amp;dn":"Love+And+A+Bullet+DVDRip+2002+Xvid-LilReaper22395","amp;tr":["udp%3A%2F%2Ftracker.openbittorrent.com%3A80","udp%3A%2F%2Fopen.demonii.com%3A1337","udp%3A%2F%2Ftracker.coppersurfer.tk%3A6969","udp%3A%2F%2Fexodus.desync.com%3A6969"],"infoHash":"b893216556da4961e6a4f25e9af94a7b5e91448e","infoHashBuffer":{"type":"Buffer","data":[184,147,33,101,86,218,73,97,230,164,242,94,154,249,74,123,94,145,68,142]},"announce":[],"urlList":[]}}